<svg xmlns="http://www.w3.org/2000/svg" xmlns:xlink="http://www.w3.org/1999/xlink" width="20" height="20" viewBox="0 0 20 20">
  <defs>
    <clipPath id="clip-path">
      <rect id="Rectangle_52" data-name="Rectangle 52" width="20" height="20" transform="translate(307 21)" fill="#fff" stroke="#707070" stroke-width="1"/>
    </clipPath>
  </defs>
  <g id="Mask_Group_27" data-name="Mask Group 27" transform="translate(-307 -21)" clip-path="url(#clip-path)">
    <g id="__TEMP__SVG__" transform="translate(305 19)">
      <path id="Path_63" data-name="Path 63" d="M21.333,19.333H2.667a.667.667,0,1,1,0-1.333H21.333a.667.667,0,1,1,0,1.333Z" fill="var(--secondary-color)"/>
      <path id="Path_64" data-name="Path 64" d="M21.333,12.667H2.667a.667.667,0,1,1,0-1.333H21.333a.667.667,0,0,1,0,1.333Z" fill="var(--secondary-color)"/>
      <path id="Path_65" data-name="Path 65" d="M21.333,6H2.667a.667.667,0,1,1,0-1.333H21.333a.667.667,0,0,1,0,1.333Z" fill="var(--secondary-color)"/>
    </g>
  </g>
</svg>
