<svg xmlns="http://www.w3.org/2000/svg" xmlns:xlink="http://www.w3.org/1999/xlink" width="15" height="15" viewBox="0 0 15 15">
  <defs>
    <clipPath id="clip-path">
      <rect id="Rectangle_76" data-name="Rectangle 76" width="15" height="15" transform="translate(1266 99)" fill="#fff" stroke="#fff" stroke-width="1"/>
    </clipPath>
  </defs>
  <g id="Mask_Group_37" data-name="Mask Group 37" transform="translate(-1266 -99)" clip-path="url(#clip-path)">
    <g id="filter" transform="translate(1263.5 96.5)">
      <path id="Path_87" data-name="Path 87" d="M11.25,17.5H8.75A1.25,1.25,0,0,1,7.5,16.25V11.506L2.869,6.875A1.25,1.25,0,0,1,2.5,5.994V3.75A1.25,1.25,0,0,1,3.75,2.5h12.5A1.25,1.25,0,0,1,17.5,3.75V5.994a1.25,1.25,0,0,1-.369.881L12.5,11.506V16.25A1.25,1.25,0,0,1,11.25,17.5ZM3.75,3.75V5.994l5,5V16.25h2.5V10.994l5-5V3.75Z" fill="#6b7280"/>
    </g>
  </g>
</svg>
