<svg id="Layer_2" height="512" viewBox="0 0 512 512" width="512" xmlns="http://www.w3.org/2000/svg" data-name="Layer 2"><g id="InterfaceIcon"><g id="_01.Home" data-name="01.Home"><path d="m256 0c-141.39 0-256 114.61-256 256 0 141.39 114.61 256 256 256 141.38 0 256-114.61 256-256 0-141.39-114.61-256-256-256zm129.36 263.78h-10.54v107.33c0 11.32-9.18 20.51-20.51 20.51h-58.76v-69.32c0-10.92-4.43-20.81-11.59-27.97-7.15-7.15-17.04-11.58-27.96-11.58-21.84 0-39.55 17.7-39.55 39.55v69.32h-58.76c-11.33 0-20.51-9.19-20.51-20.51v-107.33h-10.54c-19.24 0-27.98-24.04-13.23-36.4l116.24-97.42c15.25-12.77 37.45-12.77 52.7 0l116.24 97.42c14.75 12.36 6.01 36.4-13.23 36.4z"/></g></g></svg>