<svg version="1.2" xmlns="http://www.w3.org/2000/svg" viewBox="0 0 150 33" width="150" height="33">
	<title>logo-svg</title>
	<style>
		.s0 { fill: #e31e24 } 
		.s1 { fill: #fefefe } 
		.s2 { fill: #2b2a29 } 
		.s3 { fill: #ffed00 } 
	</style>
	<g id="Layer_x0020_1">
		<path id="Layer" fill-rule="evenodd" class="s0" d="m39.6 16.6v-5.6h1.1v2.5l2.3-2.5h1.5l-2.1 2.2 2.3 3.4h-1.5l-1.5-2.6-0.9 0.9v1.7zm5.6 0v-5.6h1.8q1 0 1.3 0.1 0.5 0.1 0.8 0.5 0.3 0.5 0.3 1.1 0 0.5-0.1 0.9-0.2 0.3-0.5 0.5-0.3 0.2-0.6 0.3-0.4 0.1-1.2 0.1h-0.7v2.1zm1.1-4.6v1.5h0.7q0.6 0 0.8 0 0.3-0.1 0.4-0.3 0.1-0.2 0.1-0.5 0-0.3-0.2-0.5-0.1-0.2-0.4-0.2-0.2 0-0.8 0zm4 4.6v-5.6h1.1v5.6zm7-2v-1h2.4v2.2q-0.3 0.4-1 0.6-0.7 0.3-1.4 0.3-0.8 0-1.5-0.4-0.6-0.3-1-1-0.3-0.7-0.3-1.5 0-0.9 0.4-1.6 0.3-0.6 1.1-1 0.5-0.3 1.3-0.3 1 0 1.6 0.5 0.6 0.4 0.8 1.2l-1.2 0.2q-0.1-0.4-0.4-0.7-0.3-0.2-0.8-0.2-0.8 0-1.2 0.5-0.4 0.4-0.4 1.3 0 1 0.4 1.5 0.5 0.5 1.2 0.5 0.3 0 0.7-0.1 0.3-0.1 0.6-0.3v-0.7zm62.4 2v-5.5h1.2v4.6h2.8v0.9zm4.6 0v-5.6h1.2v5.6zm2.2 0v-5.6h1.7l1 3.8 1-3.8h1.7v5.6h-1.1v-4.4l-1.1 4.4h-1.1l-1.1-4.4v4.4zm6.5 0v-5.6h1.1v5.6zm3.5 0v-4.6h-1.7v-1h4.5v1h-1.7v4.6zm3.5 0v-5.6h4.2v1h-3v1.2h2.7v0.9h-2.7v1.6h3.1v0.9zm5.2-5.6h2q0.7 0 1.1 0.1 0.5 0.2 0.8 0.5 0.4 0.4 0.6 0.9 0.1 0.6 0.1 1.4 0 0.6-0.1 1.2-0.2 0.6-0.6 0.9-0.3 0.3-0.8 0.5-0.4 0.1-1 0.1h-2.1zm1.1 1v3.6h0.8q0.5 0 0.7 0 0.3-0.1 0.5-0.2 0.2-0.2 0.3-0.6 0.1-0.4 0.1-1 0-0.6-0.1-1-0.2-0.3-0.4-0.5-0.2-0.2-0.5-0.3-0.2 0-0.9 0zm-85.6 4.6v-5.6h2.3q0.9 0 1.3 0.2 0.5 0.1 0.7 0.5 0.2 0.4 0.2 0.9 0 0.6-0.3 1-0.4 0.4-1.1 0.5 0.3 0.2 0.6 0.5 0.2 0.2 0.6 0.9l0.7 1.1h-1.4l-0.8-1.2q-0.4-0.7-0.6-0.8-0.1-0.2-0.3-0.3-0.2 0-0.6 0h-0.2v2.3zm1.1-3.2h0.9q0.8 0 1-0.1 0.2-0.1 0.3-0.2 0.1-0.2 0.1-0.5 0-0.2-0.1-0.4-0.2-0.2-0.5-0.2-0.1-0.1-0.8 0h-0.9zm4.5 3.2v-5.6h4.2v0.9h-3v1.3h2.8v0.9h-2.8v1.5h3.1v1zm5.2 0v-5.6h4.1v0.9h-3v1.3h2.8v0.9h-2.8v1.5h3.1v1zm5.2 0v-5.6h1.1l2.3 3.7v-3.7h1.1v5.6h-1.2l-2.2-3.7v3.7zm7.8 0v-5.6h4.1v0.9h-3v1.3h2.8v0.9h-2.8v1.5h3.1v1zm5.2 0v-5.6h1.1l2.3 3.7v-3.7h1v5.6h-1.1l-2.3-3.7v3.7zm5.7 0v-5.6h4.1v0.9h-3v1.3h2.8v0.9h-2.8v1.5h3.1v1zm5.2 0v-5.6h2.4q0.9 0 1.3 0.1 0.4 0.2 0.6 0.6 0.3 0.4 0.3 0.9 0 0.6-0.4 1-0.3 0.4-1.1 0.5 0.4 0.2 0.6 0.5 0.3 0.2 0.7 0.9l0.6 1.1h-1.3l-0.8-1.2q-0.4-0.7-0.6-0.9-0.2-0.1-0.4-0.2-0.1-0.1-0.5-0.1h-0.3v2.4zm1.2-3.3h0.8q0.8 0 1 0 0.2-0.1 0.3-0.3 0.2-0.1 0.2-0.4 0-0.3-0.2-0.4-0.1-0.2-0.4-0.3-0.2 0-0.8 0h-0.9zm7.1 1.2v-1h2.4v2.3q-0.3 0.3-1 0.6-0.7 0.2-1.4 0.3-0.9 0-1.5-0.4-0.7-0.4-1-1.1-0.3-0.7-0.3-1.5 0-0.8 0.3-1.5 0.4-0.7 1.1-1.1 0.6-0.2 1.4-0.2 1 0 1.6 0.4 0.6 0.4 0.7 1.2l-1.1 0.2q-0.1-0.4-0.4-0.6-0.4-0.3-0.8-0.3-0.8 0-1.2 0.5-0.4 0.5-0.5 1.4 0.1 1 0.5 1.5 0.4 0.5 1.1 0.5 0.4 0 0.8-0.2 0.3-0.1 0.6-0.3v-0.7zm4.9 2.1v-2.4l-2-3.2h1.3l1.3 2.2 1.3-2.2h1.3l-2.1 3.2v2.4z"/>
		<g id="_1614066128576">
		</g>
		<g id="_15_KP_Group_LOGO.cdr">
			<path id="Layer" class="s1" d="m0 0h32.2v32.8h-32.2z"/>
			<path id="Layer" class="s0" d="m3.4 3.4h17.1v8.2h8.3v17.2h-25.4z"/>
			<path id="Layer" fill-rule="evenodd" class="s1" d="m6.4 3.4h2v11.4l3.3-2.3h12.8c0.2 0 1.3 0.2 1.3 1.5v1.4c0 0.9-0.7 1.5-1.6 1.5h-6.1v7.3h-1.9v-8.8h6.8c0.4 0 0.7-0.4 0.7-0.8 0-0.4-0.3-0.8-0.7-0.8h-10.1l-3 2.1 5.2 3.5h-3.1l-3.6-2.5v2.5h-2z"/>
			<path id="Layer" fill-rule="evenodd" class="s1" d="m8.5 27.3v-0.2q-0.1 0.1-0.1 0.1c-0.2 0.1-0.3 0.1-0.4 0.1-0.3 0-0.5-0.1-0.5-0.2q-0.1-0.1-0.1-0.2v-1.2q0-0.1 0.1-0.3c0.1-0.2 0.4-0.2 0.7-0.2 0.2 0 0.5 0 0.6 0.2 0.1 0 0.1 0.1 0.1 0.2v0.3h-0.5v-0.2c0-0.1 0-0.2-0.1-0.2q0 0-0.1 0c0 0-0.1 0-0.2 0q-0.1 0.1-0.1 0.2v1.1q0 0 0 0.1c0.1 0.1 0.1 0.1 0.3 0.1 0 0 0.1 0 0.1 0 0.1-0.1 0.1-0.2 0.1-0.2v-0.3h-0.3v-0.3h0.8v1.1zm3.9 0q0 0 0-0.1 0 0 0-0.1c0-0.1 0-0.6 0-0.6 0-0.1-0.2-0.1-0.3-0.1h-0.2v0.9h-0.5v-2.1h1q0.2 0 0.3 0.1c0.2 0.1 0.2 0.2 0.2 0.4v0.2c0 0 0 0.1-0.1 0.2q0 0-0.1 0c0 0.1-0.1 0.1-0.2 0.1 0 0 0.1 0 0.1 0.1 0.3 0 0.3 0.2 0.3 0.3v0.4c0 0 0 0.2 0 0.2q0.1 0.1 0.1 0.1zm-0.1-1.6q0-0.1 0-0.2-0.1 0-0.2 0h-0.3v0.6h0.3c0 0 0.1 0 0.2-0.1 0 0 0 0 0-0.1zm4.3 1.5c-0.2 0.1-0.4 0.1-0.6 0.1-0.2 0-0.4 0-0.6-0.1q-0.1-0.1-0.1-0.1-0.1-0.1-0.1-0.3v-1.1c0-0.1 0-0.3 0.2-0.4 0.1-0.1 0.3-0.1 0.6-0.1 0.4 0 0.6 0.1 0.6 0.2 0.1 0.1 0.1 0.1 0.1 0.3v1.1q0 0.2-0.1 0.4zm-0.4-1.5c0 0 0-0.1 0-0.2 0 0-0.1 0-0.2 0q-0.1 0-0.2 0c-0.1 0-0.1 0.1-0.1 0.2v1.1c0 0 0 0.1 0.1 0.2 0 0 0.2 0 0.2 0 0 0 0.1 0 0.1 0 0.1-0.1 0.1-0.2 0.1-0.2zm4.3 1.4c-0.2 0.2-0.5 0.2-0.6 0.2-0.2 0-0.4-0.1-0.5-0.2q-0.1 0-0.2-0.1 0-0.1 0-0.2v-1.6h0.5v1.5q0 0.1 0 0.2c0.1 0.1 0.2 0.1 0.2 0.1q0.1 0 0.2-0.1c0 0 0-0.1 0-0.2v-1.5h0.5v1.6c0 0.1 0 0.2-0.1 0.3zm4-0.8c-0.1 0.1-0.2 0.1-0.5 0.1h-0.4v0.8h-0.5v-2h1q0 0 0.1 0c0.2 0 0.3 0.1 0.3 0.1 0 0.1 0 0.3 0 0.3v0.3c0 0.2 0 0.3 0 0.4zm-0.4-0.6c0-0.1 0-0.1-0.1-0.2 0 0-0.1 0-0.2 0h-0.2v0.6h0.2q0.2 0 0.2-0.1c0.1 0 0.1-0.1 0.1-0.1z"/>
			<path id="Layer" fill-rule="evenodd" class="s2" d="m3.4 2.2h0.2q0 0.1 0.1 0.2 0 0.1 0.1 0.1 0.1 0.1 0.3 0.1 0.1 0 0.2-0.1 0.1 0 0.2-0.1 0 0 0-0.1 0-0.1 0-0.2-0.1 0-0.2-0.1 0 0-0.3-0.1-0.2 0-0.3-0.1-0.2 0-0.2-0.1-0.1-0.1-0.1-0.2 0-0.2 0.1-0.3 0.1-0.1 0.2-0.2 0.2 0 0.3 0 0.2 0 0.4 0 0.1 0.1 0.2 0.2 0.1 0.1 0.1 0.3h-0.2q0-0.2-0.1-0.2-0.1-0.1-0.3-0.1-0.3 0-0.4 0-0.1 0.1-0.1 0.2 0 0.1 0.1 0.2 0.1 0 0.4 0.1 0.2 0.1 0.4 0.1 0.1 0.1 0.2 0.2 0.1 0.1 0.1 0.3 0 0.1-0.1 0.2-0.1 0.2-0.3 0.2-0.1 0.1-0.3 0.1-0.2 0-0.4-0.1-0.2-0.1-0.2-0.2-0.1-0.1-0.1-0.3zm1.6-1v-0.2h0.3v0.2zm0 1.6v-1.3h0.2v1.3zm0.5 0v-1.3h0.2v0.2q0.2-0.3 0.4-0.3 0.1 0 0.2 0.1 0.1 0 0.2 0.1 0 0.1 0 0.2 0 0 0.1 0.2v0.8h-0.3v-0.8q0-0.2 0-0.2 0-0.1-0.1-0.1 0-0.1-0.1-0.1-0.2 0-0.3 0.1-0.1 0.1-0.1 0.4v0.7zm2.2-0.5h0.3q-0.1 0.2-0.2 0.4-0.2 0.1-0.4 0.1-0.2 0-0.4-0.2-0.2-0.2-0.2-0.5 0-0.2 0.1-0.3 0.1-0.2 0.2-0.3 0.2 0 0.3-0.1 0.2 0.1 0.4 0.2 0.1 0.1 0.1 0.3h-0.2q0-0.1-0.1-0.2-0.1-0.1-0.2-0.1-0.1 0-0.2 0.2-0.1 0.1-0.1 0.3 0 0.3 0.1 0.4 0.1 0.1 0.2 0.1 0.1 0 0.2-0.1 0.1 0 0.1-0.2zm1.3 0l0.2 0.1q0 0.2-0.2 0.3-0.1 0.1-0.3 0.1-0.3 0-0.5-0.2-0.1-0.2-0.1-0.5 0-0.3 0.1-0.5 0.2-0.2 0.5-0.2 0.2 0 0.4 0.2 0.1 0.2 0.1 0.5 0 0 0 0.1h-0.9q0 0.2 0.1 0.3 0.1 0.1 0.3 0.1 0.1 0 0.2-0.1 0.1 0 0.1-0.2zm-0.7-0.3h0.7q0-0.2-0.1-0.3-0.1-0.1-0.2-0.1-0.2 0-0.3 0.1-0.1 0.1-0.1 0.3zm2.6 0.8h-0.2v-1.4q-0.1 0.1-0.2 0.1-0.1 0.1-0.2 0.1v-0.2q0.2-0.1 0.3-0.2 0.1-0.1 0.2-0.2h0.1zm0.6-0.4h0.2q0.1 0.1 0.1 0.2 0.1 0 0.2 0 0.1 0 0.2 0 0.1-0.1 0.1-0.1 0.1-0.1 0.1-0.2 0-0.2 0-0.3 0 0 0 0 0 0.1-0.1 0.1-0.2 0.1-0.3 0.1-0.2 0-0.4-0.2-0.1-0.1-0.1-0.4 0-0.3 0.2-0.4 0.1-0.2 0.3-0.2 0.2 0 0.4 0.1 0.1 0.1 0.2 0.3 0 0.1 0.1 0.5-0.1 0.3-0.1 0.5-0.1 0.2-0.2 0.3-0.2 0.1-0.4 0.1-0.2 0-0.3-0.1-0.2-0.1-0.2-0.3zm0.9-0.8q0-0.2-0.1-0.3-0.1-0.1-0.2-0.1-0.2 0-0.3 0.1-0.1 0.1-0.1 0.3 0 0.2 0.1 0.3 0.1 0.1 0.3 0.1 0.1 0 0.2-0.1 0.1-0.1 0.1-0.3zm0.5 0.8h0.2q0 0.1 0.1 0.2 0.1 0 0.2 0 0.1 0 0.2 0 0-0.1 0.1-0.1 0-0.1 0.1-0.2 0-0.2 0-0.3 0 0 0 0-0.1 0.1-0.2 0.1-0.1 0.1-0.2 0.1-0.2 0-0.4-0.2-0.1-0.1-0.1-0.4 0-0.3 0.1-0.4 0.2-0.2 0.4-0.2 0.2 0 0.3 0.1 0.2 0.1 0.2 0.3 0.1 0.1 0.1 0.5 0 0.3-0.1 0.5 0 0.2-0.2 0.3-0.1 0.1-0.3 0.1-0.2 0-0.3-0.1-0.2-0.1-0.2-0.3zm0.9-0.8q0-0.2-0.1-0.3-0.1-0.1-0.3-0.1-0.1 0-0.2 0.1-0.1 0.1-0.1 0.3 0 0.2 0.1 0.3 0.1 0.1 0.2 0.1 0.2 0 0.3-0.1 0.1-0.1 0.1-0.3zm1.1 1.2v-0.4h-0.7v-0.2l0.8-1.2h0.1v1.2h0.3v0.2h-0.3v0.4zm0-0.6v-0.8l-0.5 0.8z"/>
			<path id="Layer" class="s1" d="m27.5 10.9c0.1 0 0.2 0 0.2 0.1 0 0.1 0 0.2-0.1 0.2q-0.3 0.1-0.5 0.1-0.3 0-0.6 0c-1.6 0-3-0.6-4.1-1.7-1-1-1.7-2.5-1.7-4q0-0.2 0-0.3 0.1-0.2 0.1-0.4c0-0.1 0.1-0.1 0.2-0.1 0.1 0 0.1 0.1 0.1 0.2q0 0.1 0 0.3 0 0.1 0 0.3c0 1.5 0.6 2.8 1.6 3.8 0.9 1 2.3 1.6 3.8 1.6q0.3 0 0.5 0 0.3-0.1 0.5-0.1zm0-2.4c0.1 0 0.2 0 0.2 0.1 0.1 0.1 0 0.2-0.1 0.2q-0.2 0.1-0.5 0.2-0.3 0-0.6 0c-0.9 0-1.8-0.4-2.4-1-0.7-0.6-1.1-1.5-1.1-2.4q0-0.2 0.1-0.4 0-0.1 0-0.3c0-0.1 0.1-0.1 0.2-0.1 0.1 0 0.1 0.1 0.1 0.2q0 0.1 0 0.3 0 0.1 0 0.3c0 0.8 0.3 1.6 0.9 2.2 0.6 0.5 1.3 0.9 2.2 0.9q0.3 0 0.5-0.1 0.3 0 0.5-0.1zm0 1.2c0.1 0 0.2 0.1 0.2 0.2 0.1 0.1 0 0.2-0.1 0.2q-0.3 0-0.5 0.1-0.3 0-0.6 0c-1.3 0-2.4-0.5-3.3-1.4-0.8-0.8-1.3-2-1.3-3.2q0-0.2 0-0.3v-0.1q0-0.1 0-0.3c0-0.1 0.1-0.1 0.2-0.1 0.1 0 0.2 0.1 0.2 0.2q-0.1 0.1-0.1 0.3 0 0.1 0 0.3c0 1.1 0.5 2.2 1.3 3 0.7 0.8 1.8 1.3 3 1.3q0.3 0 0.5-0.1 0.3 0 0.5-0.1z"/>
			<path id="Layer" class="s1" d="m27.5 7c0-0.1 0.1 0 0.2 0q0.1 0.2 0 0.3-0.3 0.1-0.6 0.2-0.3 0.1-0.6 0.1c-0.6 0-1.1-0.2-1.5-0.6-0.3-0.4-0.6-0.9-0.6-1.4q0-0.2 0.1-0.4 0-0.1 0-0.3c0.1-0.1 0.2-0.1 0.3-0.1 0 0 0.1 0.1 0.1 0.2q-0.1 0.1-0.1 0.3 0 0.1 0 0.3c0 0.4 0.2 0.9 0.5 1.2 0.3 0.3 0.7 0.5 1.2 0.5q0.3 0 0.5-0.1 0.3-0.1 0.5-0.2z"/>
			<path id="Layer" class="s2" d="m28.8 3.4h-8.3v8.2h8.3z"/>
			<path id="Layer" fill-rule="evenodd" class="s1" d="m27.9 10.3c0.1 0 0.2 0.1 0.2 0.2 0.1 0.1 0 0.2-0.1 0.2q-0.3 0-0.5 0.1-0.3 0-0.6 0c-1.6 0-3-0.7-4.1-1.7-1-1-1.7-2.5-1.7-4.1q0-0.1 0-0.3 0.1-0.1 0.1-0.3c0-0.1 0.1-0.2 0.2-0.2 0.1 0.1 0.1 0.1 0.1 0.2q0 0.2 0 0.3 0 0.2 0 0.3c0 1.5 0.6 2.9 1.6 3.9 1 0.9 2.3 1.5 3.8 1.5q0.3 0 0.5 0 0.3 0 0.5-0.1zm0-2.3c0.1-0.1 0.2 0 0.2 0.1 0.1 0.1 0 0.2-0.1 0.2q-0.2 0.1-0.5 0.1-0.3 0.1-0.6 0.1c-0.9 0-1.8-0.4-2.4-1-0.7-0.7-1.1-1.5-1.1-2.5q0-0.1 0.1-0.3 0-0.2 0-0.3c0-0.1 0.1-0.2 0.2-0.2 0.1 0.1 0.2 0.2 0.1 0.3q0 0.1 0 0.2 0 0.2 0 0.3c0 0.9 0.3 1.7 0.9 2.2 0.6 0.6 1.4 1 2.2 1q0.3-0.1 0.5-0.1 0.3 0 0.5-0.1zm0 1.2q0.2 0 0.2 0.1c0.1 0.1 0 0.2-0.1 0.2q-0.3 0.1-0.5 0.1-0.3 0.1-0.6 0.1c-1.3 0-2.4-0.6-3.3-1.4-0.8-0.8-1.3-2-1.3-3.3q0-0.1 0-0.3 0-0.1 0-0.3c0-0.1 0.1-0.2 0.2-0.2 0.1 0.1 0.2 0.1 0.2 0.2q-0.1 0.2-0.1 0.3 0 0.2 0 0.3c0 1.2 0.5 2.3 1.3 3.1 0.8 0.7 1.8 1.2 3 1.2q0.3 0 0.5 0 0.3 0 0.5-0.1z"/>
			<path id="Layer" class="s3" d="m27.9 6.5c0.1-0.1 0.2-0.1 0.2 0 0.1 0.1 0 0.2 0 0.2q-0.3 0.2-0.6 0.3-0.3 0.1-0.6 0.1c-0.6 0-1.1-0.2-1.5-0.6-0.3-0.4-0.6-0.9-0.6-1.5q0-0.1 0.1-0.3 0-0.2 0-0.3c0.1-0.1 0.2-0.2 0.3-0.1 0 0 0.1 0.1 0.1 0.2q-0.1 0.1-0.1 0.2 0 0.2 0 0.3c0 0.5 0.2 0.9 0.5 1.2 0.3 0.4 0.7 0.5 1.2 0.5q0.3 0 0.5 0 0.3-0.1 0.5-0.2z"/>
			<path id="Layer" fill-rule="evenodd" class="s2" d="m30.5 1.7c0.4 0 0.7 0.1 1 0.4 0.3 0.3 0.4 0.6 0.4 1 0 0.4-0.2 0.8-0.4 1-0.3 0.3-0.6 0.5-1 0.5-0.4 0-0.8-0.2-1-0.5-0.3-0.2-0.5-0.6-0.5-1 0-0.4 0.2-0.7 0.5-1 0.2-0.3 0.6-0.4 1-0.4zm0.9 0.5c-0.3-0.2-0.6-0.4-0.9-0.4-0.4 0-0.7 0.2-0.9 0.4-0.3 0.2-0.4 0.6-0.4 0.9 0 0.4 0.1 0.7 0.4 0.9 0.2 0.3 0.5 0.4 0.9 0.4 0.3 0 0.6-0.2 0.9-0.4 0.2-0.2 0.4-0.5 0.4-0.9 0-0.3-0.2-0.7-0.4-0.9zm-1.6 1.8v-1.8h0.7q0.3 0 0.4 0.1 0.1 0 0.2 0.1 0.1 0.2 0 0.3 0 0.2-0.1 0.3-0.1 0.2-0.4 0.2c0.3 0.1 0.5 0.5 0.5 0.8h-0.2c-0.1-0.2-0.3-0.6-0.5-0.7-0.1-0.1-0.1-0.1-0.2-0.1h-0.2v0.8zm0.3-1h0.4q0.2 0 0.3 0 0.1-0.1 0.1-0.1 0-0.1 0.1-0.2 0-0.1-0.1-0.2-0.1-0.1-0.3-0.1h-0.5z"/>
			<g id="Layer">
				<path id="Layer" fill-rule="evenodd" class="s2" d="m5.7 29.9q0 0.1 0 0.1 0 0 0 0l-0.4 1.5q0 0 0 0-0.1 0-0.1 0 0 0 0 0-0.1 0.1-0.1 0.1-0.1 0-0.1-0.1 0 0-0.1 0 0 0 0 0 0 0 0 0l-0.3-1.1-0.3 1.1q0 0-0.1 0 0 0 0 0 0 0 0 0-0.1 0.1-0.1 0.1-0.1 0-0.1-0.1-0.1 0-0.1 0 0 0 0 0 0 0 0 0l-0.5-1.5q0 0 0 0 0 0 0 0 0-0.1 0-0.1 0 0 0 0 0.1 0 0.1 0 0 0 0.1 0 0 0 0 0 0.1 0 0.1 0 0 0 0 0 0 0 0 0.1l0.4 1.2 0.3-1.2q0-0.1 0-0.1 0 0 0.1 0 0 0 0 0 0 0 0.1 0 0 0 0 0 0.1 0 0.1 0 0 0 0 0 0 0 0 0.1l0.4 1.2 0.4-1.2q0-0.1 0-0.1 0 0 0 0 0 0 0 0 0.1 0 0.1 0 0 0 0.1 0 0 0 0 0 0 0 0 0 0 0 0 0.1zm2.7 0q0 0 0 0 0 0-0.1 0l-0.4 1.5q0 0 0 0 0 0-0.1 0 0 0 0 0 0 0.1-0.1 0.1-0.1 0-0.1-0.1 0 0 0 0-0.1 0-0.1 0 0 0 0 0l-0.3-1.1-0.3 1.1q0 0 0 0 0 0-0.1 0 0 0 0 0 0 0.1-0.1 0.1-0.1 0-0.1-0.1 0 0 0 0-0.1 0-0.1 0 0 0 0 0l-0.4-1.5q0 0-0.1 0 0 0 0 0 0-0.1 0.1-0.1 0 0 0 0 0 0 0 0 0 0 0.1 0 0 0 0.1 0 0 0 0 0 0 0 0 0 0 0 0 0.1l0.4 1.2 0.4-1.2q0-0.1 0-0.1 0 0 0 0 0 0 0 0 0.1 0 0.1 0 0 0 0.1 0 0 0 0 0 0 0 0 0 0 0 0 0.1l0.4 1.2 0.4-1.2q0-0.1 0-0.1 0 0 0 0 0 0 0.1 0 0 0 0 0 0.1 0 0.1 0 0 0 0 0 0 0 0.1 0 0 0 0 0.1zm2.6 0q0 0 0 0 0 0 0 0l-0.5 1.5q0 0 0 0 0 0 0 0 0 0-0.1 0 0 0.1-0.1 0.1 0 0-0.1-0.1 0 0 0 0 0 0 0 0 0 0-0.1 0l-0.3-1.1-0.3 1.1q0 0 0 0 0 0 0 0-0.1 0-0.1 0 0 0.1-0.1 0.1 0 0-0.1-0.1 0 0 0 0 0 0-0.1 0 0 0 0 0l-0.4-1.5q0 0 0 0 0 0 0 0 0-0.1 0-0.1 0 0 0 0 0 0 0 0 0.1 0 0.1 0 0.1 0 0.1 0 0 0 0 0 0 0 0.1 0 0 0 0 0.1l0.3 1.2 0.4-1.2q0-0.1 0-0.1 0 0 0 0 0 0 0.1 0 0 0 0 0 0.1 0 0.1 0 0 0 0 0 0 0 0.1 0 0 0 0 0.1l0.3 1.2 0.4-1.2q0-0.1 0-0.1 0 0 0 0 0.1 0 0.1 0 0 0 0.1 0 0 0 0 0 0 0 0.1 0 0 0 0 0 0 0 0 0.1zm0.6 1.3q0 0.2-0.1 0.2 0 0.1-0.1 0-0.1 0.1-0.1 0-0.1 0-0.1-0.2 0-0.1 0.1-0.1 0-0.1 0.1-0.1 0.1 0 0.2 0.1 0 0 0 0.1zm1.9 0.2q0 0 0 0 0 0 0 0-0.1 0-0.1 0 0 0.1-0.1 0.1 0 0 0-0.1-0.1 0-0.1 0 0 0 0 0 0 0 0 0l-0.7-0.9v0.9q0 0 0 0 0 0 0 0 0 0-0.1 0 0 0.1 0 0.1-0.1 0-0.1-0.1 0 0-0.1 0 0 0 0 0 0 0 0 0v-2.3q0 0 0 0 0 0 0 0 0.1 0 0.1 0 0 0 0.1 0 0 0 0 0 0.1 0 0.1 0 0 0 0 0 0 0 0 0v1.4l0.6-0.6q0-0.1 0-0.1 0 0 0 0 0.1 0 0.1 0 0 0 0.1 0 0 0 0 0 0.1 0 0.1 0 0 0 0 0 0 0 0 0.1 0 0 0 0 0 0 0 0l-0.6 0.6 0.6 0.8q0.1 0 0.1 0.1 0 0 0 0zm1.8-0.8q0 0.2 0 0.4-0.1 0.1-0.1 0.2-0.1 0.1-0.2 0.2-0.2 0.1-0.3 0.1-0.1 0-0.2-0.1 0 0-0.1 0 0 0-0.1-0.1 0 0-0.1-0.1v0.8q0 0 0 0 0 0 0 0.1 0 0-0.1 0 0 0 0 0-0.1 0-0.1 0 0 0 0 0-0.1-0.1-0.1-0.1 0 0 0 0c0 0 0-2.2 0-2.2q0 0 0.1 0 0 0 0 0 0 0 0.1 0 0 0 0 0 0 0 0 0 0.1 0 0.1 0 0 0 0 0.1v0.2q0-0.1 0.1-0.2 0.1 0 0.1 0 0.1-0.1 0.2-0.1 0 0 0.1 0 0.2 0 0.3 0 0.1 0.1 0.2 0.2 0.1 0.1 0.1 0.3 0 0.1 0 0.3zm-0.3 0q0-0.1 0-0.2 0-0.1 0-0.2-0.1-0.1-0.2-0.1 0-0.1-0.1-0.1-0.1 0-0.1 0-0.1 0.1-0.1 0.1-0.1 0-0.2 0.1 0 0-0.1 0.1v0.6q0.1 0.2 0.2 0.3 0.1 0 0.3 0 0.1 0 0.1 0 0.1-0.1 0.2-0.2 0 0 0-0.2 0.1-0.1 0-0.2zm2.2-0.7q0 0.1-0.1 0.1 0 0 0 0h-0.2q0 0.1 0.1 0.2 0 0 0 0.1 0 0.2 0 0.3-0.1 0.1-0.2 0.1-0.1 0.1-0.2 0.2-0.1 0-0.2 0-0.1 0-0.2 0-0.1-0.1-0.1-0.1 0 0-0.1 0.1 0 0 0 0.1 0 0 0.1 0.1 0 0 0.1 0h0.4q0.1 0 0.2 0.1 0.1 0 0.2 0 0.1 0.1 0.1 0.2 0 0 0 0.1 0 0.1 0 0.2 0 0.1-0.1 0.2-0.1 0.1-0.3 0.1-0.1 0.1-0.3 0.1-0.2 0-0.3-0.1-0.2 0-0.2-0.1-0.1 0-0.2-0.1 0-0.1 0-0.2 0 0 0-0.1 0 0 0.1-0.1 0 0 0-0.1 0.1 0 0.1 0-0.1-0.1-0.1-0.1 0-0.1 0-0.2 0-0.1 0-0.2 0-0.1 0.1-0.1 0-0.1-0.1-0.2 0 0 0-0.2 0-0.1 0-0.2 0.1-0.1 0.2-0.2 0 0 0.2-0.1 0.1 0 0.2 0 0.1 0 0.1 0 0.1 0 0.1 0h0.5q0 0 0 0 0.1 0.1 0.1 0.1zm-0.5 0.4q0-0.1-0.1-0.2-0.1-0.1-0.2-0.1-0.1 0-0.2 0 0 0.1-0.1 0.1 0 0 0 0.1 0 0.1 0 0.1 0 0.2 0.1 0.3 0 0.1 0.2 0.1 0.1 0 0.1-0.1 0.1 0 0.1 0 0.1-0.1 0.1-0.1 0-0.1 0-0.2zm0.2 1.3q0-0.2-0.1-0.2-0.1-0.1-0.2-0.1h-0.4q-0.1 0.1-0.1 0.1-0.1 0-0.1 0.1 0 0 0 0 0 0.1 0 0.1 0 0.1 0.1 0.2 0.1 0 0.3 0 0.1 0 0.2 0 0.1 0 0.2-0.1 0 0 0 0 0.1-0.1 0.1-0.2zm1.6-1.6q0 0.1 0 0.1 0 0 0 0.1 0 0 0 0 0 0 0 0 0 0 0 0-0.1 0-0.1 0 0 0 0-0.1-0.1 0-0.1 0-0.1 0-0.1 0.1 0 0-0.1 0 0 0.1-0.1 0.1 0 0.1-0.1 0.2v1q0 0 0 0 0 0 0 0 0 0-0.1 0 0 0.1 0 0-0.1 0.1-0.1 0 0 0 0 0-0.1 0-0.1 0 0 0 0 0v-1.6q0 0 0 0 0 0 0.1 0 0 0 0 0 0 0 0.1 0 0 0 0 0 0 0 0.1 0 0 0 0 0 0 0 0 0v0.3q0-0.1 0.1-0.2 0.1 0 0.1-0.1 0.1 0 0.1 0 0.1 0 0.1 0 0 0 0.1 0 0 0 0 0 0.1 0 0.1 0 0 0 0 0 0 0 0 0 0 0 0 0.1 0 0 0 0 0 0 0 0zm1.8 0.7q0 0.2 0 0.3-0.1 0.2-0.2 0.3-0.1 0.1-0.2 0.2-0.2 0.1-0.4 0.1-0.1 0-0.3-0.1-0.1 0-0.2-0.2-0.1-0.1-0.1-0.2-0.1-0.2-0.1-0.4 0-0.2 0.1-0.3 0-0.2 0.1-0.3 0.1-0.1 0.2-0.2 0.2 0 0.4 0 0.2 0 0.3 0 0.2 0.1 0.2 0.2 0.1 0.1 0.2 0.3 0 0.1 0 0.3zm-0.3 0q0-0.1 0-0.2 0-0.1-0.1-0.2 0-0.1-0.1-0.1-0.1-0.1-0.2-0.1-0.1 0-0.2 0.1-0.1 0-0.2 0.1-0.1 0.1-0.1 0.2 0 0.1 0 0.2 0 0.1 0 0.3 0 0.1 0.1 0.2 0 0 0.1 0.1 0.1 0 0.3 0 0.1 0 0.2 0 0.1-0.1 0.1-0.1 0.1-0.1 0.1-0.2 0-0.1 0-0.3zm2.2 0.8q0 0-0.1 0 0 0 0 0 0 0.1-0.1 0.1 0 0 0-0.1 0 0 0 0-0.1 0-0.1 0 0 0 0 0v-0.2q-0.1 0.1-0.2 0.2-0.2 0.1-0.3 0.1-0.2 0-0.3-0.1-0.1 0-0.1-0.1-0.1-0.1-0.1-0.2-0.1-0.1-0.1-0.3v-1q0.1 0 0.1 0 0 0 0 0 0 0 0 0 0.1 0 0.1 0 0 0 0.1 0 0 0 0 0 0 0 0 0 0 0 0 0v0.9q0 0.2 0.1 0.3 0 0 0 0.1 0.1 0.1 0.1 0.1 0.1 0 0.2 0 0.1 0 0.2-0.1 0.1 0 0.2-0.2c0 0 0-1.1 0-1.1q0 0 0 0 0 0 0.1 0 0 0 0 0 0.1 0 0.1 0 0 0 0 0 0.1 0 0.1 0 0 0 0 0c0 0.1 0 1.6 0 1.6zm2-0.8q0 0.2 0 0.4-0.1 0.1-0.1 0.2-0.1 0.1-0.3 0.2-0.1 0.1-0.2 0.1-0.1 0-0.2-0.1 0 0-0.1 0 0 0-0.1-0.1 0 0-0.1-0.1v0.8q0 0 0 0 0 0 0 0.1-0.1 0-0.1 0 0 0 0 0-0.1 0-0.1 0 0 0-0.1 0 0-0.1 0-0.1 0 0 0 0v-2.1q0-0.1 0-0.1 0 0 0 0 0.1 0 0.1 0 0 0 0 0 0.1 0 0.1 0 0 0 0 0 0 0 0.1 0 0 0 0 0.1v0.2q0-0.1 0.1-0.2 0.1 0 0.1 0 0.1-0.1 0.2-0.1 0 0 0.1 0 0.2 0 0.3 0 0.1 0.1 0.2 0.2 0.1 0.1 0.1 0.3 0 0.1 0 0.3zm-0.3 0q0-0.1 0-0.2 0-0.1 0-0.2-0.1-0.1-0.2-0.1 0-0.1-0.2-0.1 0 0-0.1 0 0 0.1-0.1 0.1 0 0-0.1 0.1 0 0-0.1 0.1v0.6q0.1 0.2 0.2 0.3 0.1 0 0.2 0 0.1 0 0.2 0 0.1-0.1 0.1-0.2 0.1 0 0.1-0.2 0-0.1 0-0.2zm1.2 0.7q0 0.1 0 0.1-0.1 0.1-0.2 0-0.1 0.1-0.1 0 0 0 0-0.1 0-0.2 0-0.2 0-0.1 0.1 0 0.1-0.1 0.2 0 0 0 0 0.2zm1.8-0.1q0 0 0 0 0 0 0 0-0.1 0.1-0.1 0.1 0 0 0 0 0 0-0.1 0.1 0 0-0.1 0 0 0-0.1 0.1-0.1 0-0.2 0-0.1 0-0.3-0.1-0.1 0-0.2-0.1-0.1-0.2-0.1-0.3 0-0.2-0.1-0.4 0-0.2 0.1-0.3 0.1-0.2 0.2-0.3 0.1-0.1 0.2-0.2 0.1 0 0.3 0 0 0 0.1 0 0.1 0 0.1 0 0.1 0.1 0.1 0.1 0.1 0 0.1 0 0 0.1 0 0.1 0 0 0 0 0.1 0 0.1 0 0 0 0 0.1 0 0.1-0.1 0.1 0 0 0 0 0 0-0.1 0 0-0.1 0-0.1-0.1 0-0.2 0 0-0.1-0.1-0.1-0.2 0-0.4 0.2-0.1 0.1-0.1 0.4 0 0.2 0.1 0.3 0 0.1 0.1 0.2 0 0 0.1 0.1 0.1 0 0.2 0 0.1 0 0.1 0 0.1 0 0.2-0.1 0 0 0.1 0 0-0.1 0-0.1 0 0 0 0 0.1 0 0 0.1 0.1 0 0.1 0 0 0 0 0.1z"/>
				<path id="Layer" fill-rule="evenodd" class="s2" d="m28.8 30.7q-0.1 0.2-0.1 0.3 0 0.2-0.1 0.3-0.1 0.1-0.3 0.2-0.1 0.1-0.3 0.1-0.2 0-0.4-0.1-0.1 0-0.2-0.1-0.1-0.2-0.1-0.3-0.1-0.2-0.1-0.4 0-0.1 0.1-0.3 0-0.2 0.1-0.3 0.1-0.1 0.2-0.2 0.2 0 0.4 0 0.2 0 0.3 0 0.2 0.1 0.3 0.2 0.1 0.1 0.1 0.3 0 0.1 0 0.3zm-0.2 0q0-0.1-0.1-0.2 0-0.1 0-0.2-0.1-0.1-0.2-0.1-0.1-0.1-0.2-0.1-0.1 0-0.2 0.1-0.1 0-0.2 0.1 0 0.1-0.1 0.2 0 0.1 0 0.2 0 0.1 0 0.3 0.1 0.1 0.1 0.2 0.1 0 0.2 0.1 0 0 0.2 0 0.1 0 0.2 0 0.1-0.1 0.1-0.1 0.1-0.1 0.1-0.2 0.1-0.1 0.1-0.3z"/>
			</g>
		</g>
	</g>
</svg>