<svg xmlns="http://www.w3.org/2000/svg" version="1.1" xmlns:xlink="http://www.w3.org/1999/xlink" width="512" height="512" x="0" y="0" viewBox="0 0 24 24" style="enable-background:new 0 0 512 512" xml:space="preserve"><g><g data-name="Layer 2"><path d="M12 22.607a1.745 1.745 0 0 1-.85-.222l-3.37-1.872a10.757 10.757 0 0 1-5.53-9.397V5.92a1.747 1.747 0 0 1 1.568-1.738 17.303 17.303 0 0 0 3.932-.889 17.328 17.328 0 0 0 3.336-1.598 1.751 1.751 0 0 1 1.828 0 17.355 17.355 0 0 0 3.336 1.598 17.303 17.303 0 0 0 3.932.889A1.747 1.747 0 0 1 21.75 5.92v5.196a10.757 10.757 0 0 1-5.53 9.397l-3.37 1.873a1.743 1.743 0 0 1-.85.221zm0-19.67a.239.239 0 0 0-.125.034A18.863 18.863 0 0 1 8.25 4.708a18.77 18.77 0 0 1-4.273.966.248.248 0 0 0-.227.247v5.196a9.255 9.255 0 0 0 4.758 8.086l3.37 1.872a.247.247 0 0 0 .242 0l3.372-1.872a9.255 9.255 0 0 0 4.758-8.086V5.92a.248.248 0 0 0-.227-.247 18.77 18.77 0 0 1-4.273-.966 18.863 18.863 0 0 1-3.625-1.735.235.235 0 0 0-.125-.035z" fill="#ffffff" opacity="1" data-original="#000000"></path><path d="M11.5 14.25a.746.746 0 0 1-.498-.19l-2.25-2a.75.75 0 0 1 .996-1.12l1.704 1.514 3.251-3.467a.75.75 0 1 1 1.094 1.026l-3.75 4a.747.747 0 0 1-.547.237z" fill="#ffffff" opacity="1" data-original="#000000"></path></g></g></svg>