<svg xmlns="http://www.w3.org/2000/svg" version="1.1" xmlns:xlink="http://www.w3.org/1999/xlink" width="512" height="512" x="0" y="0" viewBox="0 0 512 512" style="enable-background:new 0 0 512 512" xml:space="preserve"><g><path d="M122.39 165.78h244.87c10.49 0 19-8.51 19-19s-8.51-19-19-19H122.39c-10.49 0-19 8.51-19 19s8.51 19 19 19zM286.72 265.22c0-10.49-8.51-19-19-19H122.39c-10.49 0-19 8.51-19 19s8.51 19 19 19h145.33c10.49 0 19-8.51 19-19z" fill="#ffffff" opacity="1" data-original="#000000"></path><path d="M486.63 323.71c2.04-22.33 3.41-48.35 3.44-78.68-.06-57.07-4.85-98.86-9.96-129.57-8.94-50.6-54.9-96.56-105.5-105.5C343.9 4.85 302.11.06 245.03 0c-57.07.06-98.87 4.85-129.58 9.96C64.86 18.9 18.9 64.86 9.96 115.46 4.85 146.17.07 187.96 0 245.03c.07 57.07 4.85 98.87 9.96 129.58 8.94 50.6 54.9 96.56 105.5 105.5 30.71 5.11 72.5 9.89 129.58 9.96 30.32-.03 56.34-1.4 78.66-3.44 19.84 15.87 45 25.37 72.38 25.37 64.02 0 115.93-51.9 115.93-115.92 0-27.38-9.5-52.54-25.37-72.37zM245.04 452.07c-45.02-.05-85.3-3.13-123.13-9.41-16.81-3.01-33.84-12.44-47.95-26.55s-23.53-31.13-26.55-47.95c-6.28-37.79-9.35-78.07-9.41-123.13.05-45.04 3.13-85.32 9.41-123.13 3.01-16.81 12.44-33.83 26.55-47.94s31.13-23.53 47.95-26.55C159.72 41.13 200 38.06 245.04 38c45.02.05 85.3 3.13 123.13 9.41 16.81 3.01 33.83 12.44 47.95 26.55 14.11 14.11 23.53 31.13 26.55 47.95 6.28 37.83 9.35 78.1 9.41 123.13-.02 16.9-.48 33.11-1.36 48.79-16.28-8.72-34.88-13.66-54.64-13.66-64.02 0-115.93 51.9-115.93 115.92 0 19.76 4.95 38.35 13.66 54.63-15.68.88-31.89 1.34-48.78 1.35zM396.08 474c-42.97 0-77.93-34.95-77.93-77.92s34.96-77.92 77.93-77.92 77.93 34.95 77.93 77.92S439.05 474 396.08 474z" fill="#ffffff" opacity="1" data-original="#000000"></path><path d="M406.28 418.24c-2.42-.4-5.71-.78-10.2-.78s-7.78.38-10.2.78c-3.98.7-7.6 4.32-8.31 8.31-.4 2.42-.78 5.71-.78 10.2s.38 7.78.78 10.2c.7 3.98 4.32 7.6 8.31 8.31 2.42.4 5.71.78 10.2.78s7.78-.38 10.2-.78c3.98-.7 7.6-4.32 8.31-8.31.4-2.42.78-5.71.78-10.2s-.38-7.78-.78-10.2c-.7-3.98-4.32-7.6-8.31-8.31zM396.07 405.63c10.49 0 19-8.51 19-19v-31.7c0-10.49-8.51-19-19-19s-19 8.51-19 19v31.7c0 10.49 8.51 19 19 19z" fill="#ffffff" opacity="1" data-original="#000000"></path></g></svg>