<svg xmlns="http://www.w3.org/2000/svg" version="1.1" xmlns:xlink="http://www.w3.org/1999/xlink" width="512" height="512" x="0" y="0" viewBox="0 0 32 32" style="enable-background:new 0 0 512 512" xml:space="preserve"><g><g data-name="Layer 2"><path d="M3 9a1 1 0 0 1-1-1V3a2.002 2.002 0 0 1 2-2h5a1 1 0 0 1 0 2H4v5a1 1 0 0 1-1 1zM9 31H4a2.002 2.002 0 0 1-2-2v-5a1 1 0 0 1 2 0v5h5a1 1 0 0 1 0 2zM29 9a1 1 0 0 1-1-1V3h-5a1 1 0 0 1 0-2h5a2.002 2.002 0 0 1 2 2v5a1 1 0 0 1-1 1zM28 31h-5a1 1 0 0 1 0-2h5v-5a1 1 0 0 1 2 0v5a2.002 2.002 0 0 1-2 2zM16 16.53a6.015 6.015 0 1 1 6.015-6.015A6.022 6.022 0 0 1 16 16.53zM16 6.5a4.015 4.015 0 1 0 4.015 4.015A4.02 4.02 0 0 0 16 6.5z" fill="#ffffff" opacity="1" data-original="#000000"></path><path d="M21.722 25.5H10.278a2.977 2.977 0 0 1-2.974-2.974 7.925 7.925 0 0 1 7.91-7.938h1.572a7.919 7.919 0 0 1 7.91 7.91 2.983 2.983 0 0 1-2.974 3.002zm-6.508-8.912a5.917 5.917 0 0 0-5.91 5.91.981.981 0 0 0 .974 1.002h11.444a.975.975 0 0 0 .974-.974 5.923 5.923 0 0 0-5.91-5.938z" fill="#ffffff" opacity="1" data-original="#000000"></path></g></g></svg>