<svg xmlns="http://www.w3.org/2000/svg" width="15" height="10.313" viewBox="0 0 15 10.313">
  <g id="__TEMP__SVG__" transform="translate(0 -2.344)">
    <g id="Group_33" data-name="Group 33">
      <path id="Path_35" data-name="Path 35" d="M15,7.5S12.188,2.344,7.5,2.344,0,7.5,0,7.5s2.813,5.156,7.5,5.156S15,7.5,15,7.5ZM1.1,7.5A12.312,12.312,0,0,1,2.656,5.585,6.985,6.985,0,0,1,7.5,3.281a6.991,6.991,0,0,1,4.845,2.3A12.312,12.312,0,0,1,13.9,7.5c-.054.082-.114.172-.183.27a12.363,12.363,0,0,1-1.373,1.645,6.993,6.993,0,0,1-4.845,2.3,6.991,6.991,0,0,1-4.845-2.3A12.313,12.313,0,0,1,1.1,7.5Z" fill="#b88100"/>
      <path id="Path_36" data-name="Path 36" d="M7.5,5.156A2.344,2.344,0,1,0,9.844,7.5,2.344,2.344,0,0,0,7.5,5.156ZM4.219,7.5A3.281,3.281,0,1,1,7.5,10.781,3.281,3.281,0,0,1,4.219,7.5Z" fill="#b88100"/>
    </g>
  </g>
</svg>
